<svg xmlns="http://www.w3.org/2000/svg" xmlns:xlink="http://www.w3.org/1999/xlink" viewBox="0 0 55 65" fill="#fff" fill-rule="evenodd" stroke="#000" stroke-linecap="round" stroke-linejoin="round"><use xlink:href="#A" x=".5" y=".5"/><symbol id="A" overflow="visible"><g stroke="none" fill-rule="nonzero"><path d="M9.334 32.016L3.377 11.532 0 13.22v37.527l3.377 1.657z" fill="#9d5125"/><path d="M3.376 52.404l6.53-1.53V13.093l-6.53-1.53z" fill="#f58534"/><path d="M18.572 32.016l-6.18 24.912-4.97-2.485V9.525l4.97-2.485z" fill="#9d5125"/><path d="M12.392 7.04l10.13 3.25v43.325l-10.13 3.218z" fill="#f58534"/><path d="M49.632 46.86l-4.078-.223V15.8h4.078z" fill="#9d5125"/><path d="M49.314 15.8l.446 3.982-4.1.573-15.833-4.1 4.537-2.355z" fill="#6b3b19"/><path d="M49.887 44.185l-4.1-.573-15.833 4.1 4.556 2.357z" fill="#fcbf92"/><g fill="#9d5125"><path d="M39.247 21.758l-8.155 1.083v18.286l8.155 1.083z"/><path d="M33.29 31.952L26.504 0l-7.932 3.95v56.068l7.932 3.95z"/></g><path d="M49.632 44.25l-15.196 4.556v-33.64l15.196 4.556zM26.504 0v64l26.505-13.252V13.252zm12.743 42.274l8.442-10.258-8.442-10.258z" fill="#f58534"/></g></symbol></svg>